<?xml version="1.0" encoding="UTF-8" standalone="no"?>
<svg
   xmlns:dc="http://purl.org/dc/elements/1.1/"
   xmlns:cc="http://creativecommons.org/ns#"
   xmlns:rdf="http://www.w3.org/1999/02/22-rdf-syntax-ns#"
   xmlns:svg="http://www.w3.org/2000/svg"
   xmlns="http://www.w3.org/2000/svg"
   xmlns:sodipodi="http://sodipodi.sourceforge.net/DTD/sodipodi-0.dtd"
   xmlns:inkscape="http://www.inkscape.org/namespaces/inkscape"
   role="img"
   viewBox="0 0 31.23366 31.280485"
   version="1.1"
   id="svg6"
   sodipodi:docname="youtube.svg"
   width="31.23366"
   height="31.280485"
   inkscape:version="0.92.4 (5da689c313, 2019-01-14)">
  <metadata
     id="metadata12">
    <rdf:RDF>
      <cc:Work
         rdf:about="">
        <dc:format>image/svg+xml</dc:format>
        <dc:type
           rdf:resource="http://purl.org/dc/dcmitype/StillImage" />
        <dc:title>YouTube icon</dc:title>
      </cc:Work>
    </rdf:RDF>
  </metadata>
  <defs
     id="defs10" />
  <sodipodi:namedview
     pagecolor="#ffffff"
     bordercolor="#666666"
     borderopacity="1"
     objecttolerance="10"
     gridtolerance="10"
     guidetolerance="10"
     inkscape:pageopacity="0"
     inkscape:pageshadow="2"
     inkscape:window-width="1407"
     inkscape:window-height="1225"
     id="namedview8"
     showgrid="false"
     fit-margin-top="0"
     fit-margin-left="0"
     fit-margin-right="0"
     fit-margin-bottom="0"
     inkscape:zoom="9.8333333"
     inkscape:cx="8.6211822"
     inkscape:cy="20.405475"
     inkscape:window-x="119"
     inkscape:window-y="77"
     inkscape:window-maximized="0"
     inkscape:current-layer="svg6" />
  <title
     id="title2">YouTube icon</title>
  <ellipse
     style="fill:#ff0000;fill-opacity:1;stroke-width:1.30239522"
     id="path3723"
     cx="15.61683"
     cy="15.640243"
     rx="15.61683"
     ry="15.640243" />
  <path
     d="M 24.606899,11.121425 A 2.3493187,2.3493187 0 0 0 22.97558,9.490106 c -1.461,-0.3914229 -7.340938,-0.3914229 -7.340938,-0.3914229 0,0 -5.8650933,-0.00781 -7.3409373,0.3914229 a 2.3493187,2.3493187 0 0 0 -1.6313194,1.631319 24.412757,24.412757 0 0 0 -0.4078299,4.53535 24.412757,24.412757 0 0 0 0.4078299,4.51816 2.3493187,2.3493187 0 0 0 1.6313194,1.63132 c 1.4594371,0.392205 7.3409373,0.392205 7.3409373,0.392205 0,0 5.864312,0 7.340938,-0.392205 a 2.3493187,2.3493187 0 0 0 1.631319,-1.63132 24.412757,24.412757 0 0 0 0.390642,-4.51816 24.412757,24.412757 0 0 0 -0.390642,-4.53535 z M 13.758,18.462363 v -5.619771 l 4.893958,2.814183 z"
     id="path4"
     inkscape:connector-curvature="0"
     style="fill:#ffffff;stroke-width:0.7812832" />
</svg>
