<?xml version="1.0" encoding="utf-8"?>
<!-- Generator: Adobe Illustrator 24.0.3, SVG Export Plug-In . SVG Version: 6.00 Build 0)  -->
<svg version="1.1" id="レイヤー_1" xmlns="http://www.w3.org/2000/svg" xmlns:xlink="http://www.w3.org/1999/xlink" x="0px"
	 y="0px" viewBox="0 0 90 30" style="enable-background:new 0 0 90 30;" xml:space="preserve">
<style type="text/css">
	.st0{display:none;}
	.st1{display:inline;fill:#008246;}
	.st2{fill:#1c8df0;}
	.st3{fill:#FFFFFF;}
	.st4{fill:#424242;}
</style>
<g id="XMLID_68_" class="st0">
	<rect id="XMLID_70_" x="35.4" y="-6" class="st1" width="12" height="41.9"/>
	<rect id="XMLID_69_" x="-3.4" y="-6" class="st1" width="6" height="41.9"/>
</g>
<path class="st2" d="M27.9,12.9c-0.7,0-1.3,0.3-1.7,0.8v0c-0.6,0.9-2.1,0.6-2.4-0.5v0c-0.2-1.1-0.7-2.2-1.3-3.2l0,0
	c-0.6-0.9,0.3-2.2,1.4-2l0,0c0.6,0.1,1.3-0.1,1.8-0.6c0.8-0.8,0.8-2.2,0-3c-0.8-0.8-2.2-0.8-3,0c-0.5,0.5-0.7,1.2-0.6,1.8l0,0
	c0.2,1.1-1.1,1.9-2,1.4l0,0c-0.5-0.3-1-0.6-1.5-0.8s-1.1-0.4-1.7-0.5h0c-1.1-0.2-1.4-1.7-0.5-2.4h0c0.5-0.4,0.8-1,0.8-1.7
	C17.1,1,16.2,0,15,0s-2.1,1-2.1,2.1c0,0.7,0.3,1.3,0.8,1.7h0c0.9,0.6,0.6,2.1-0.5,2.4h0C12.1,6.4,11,6.9,10,7.5l0,0
	C9.1,8.1,7.9,7.3,8,6.2l0,0c0.1-0.6-0.1-1.3-0.6-1.8c-0.8-0.8-2.2-0.8-3,0c-0.8,0.8-0.8,2.2,0,3C4.9,7.9,5.6,8.1,6.2,8l0,0
	c1.1-0.2,1.9,1.1,1.4,2l0,0c-0.3,0.5-0.6,1-0.8,1.5s-0.4,1.1-0.5,1.7v0c-0.2,1.1-1.7,1.4-2.4,0.5v0c-0.4-0.5-1-0.8-1.7-0.8
	C1,12.9,0,13.8,0,15s1,2.1,2.1,2.1c0.7,0,1.3-0.3,1.7-0.8v0c0.6-0.9,2.1-0.6,2.4,0.5v0C6.4,17.9,6.9,19,7.5,20l0,0
	c0.6,0.9-0.3,2.2-1.4,2l0,0c-0.6-0.1-1.3,0.1-1.8,0.6c-0.8,0.8-0.8,2.2,0,3c0.8,0.8,2.2,0.8,3,0c0.5-0.5,0.7-1.2,0.6-1.8l0,0
	c-0.2-1.1,1.1-1.9,2-1.4l0,0c0.5,0.3,1,0.6,1.5,0.8s1.1,0.4,1.7,0.5h0c1.1,0.2,1.4,1.7,0.5,2.4h0c-0.5,0.4-0.8,1-0.8,1.7
	c0,1.2,1,2.1,2.1,2.1s2.1-1,2.1-2.1c0-0.7-0.3-1.3-0.8-1.7h0c-0.9-0.6-0.6-2.1,0.5-2.4h0c1.1-0.2,2.2-0.7,3.2-1.3l0,0
	c0.9-0.6,2.2,0.3,2,1.4l0,0c-0.1,0.6,0.1,1.3,0.6,1.8c0.8,0.8,2.2,0.8,3,0c0.8-0.8,0.8-2.2,0-3c-0.5-0.5-1.2-0.7-1.8-0.6l0,0
	c-1.1,0.2-1.9-1.1-1.4-2l0,0c0.3-0.5,0.6-1,0.8-1.5s0.4-1.1,0.5-1.7v0c0.2-1.1,1.7-1.4,2.4-0.5v0c0.4,0.5,1,0.8,1.7,0.8
	c1.2,0,2.1-1,2.1-2.1S29,12.9,27.9,12.9z"/>
<polygon class="st3" points="15,16.6 11.7,21.9 13.7,16 7.5,16.7 13.4,14.6 9,10.2 14.3,13.5 15,7.3 15.7,13.5 21,10.2 16.6,14.6
	22.5,16.7 16.3,16 18.3,21.9 "/>
<g>
	<g>
		<path class="st4" d="M39.6,6c1.4,0,1.9,0.5,2.3,0.7L41.2,8c-0.3-0.2-0.7-0.5-1.5-0.5c-1.1,0-2,0.6-2,2c0,1.4,0.8,2,1.9,2
			c0.9,0,1.4-0.3,1.6-0.5l0.6,1.3c-0.3,0.2-1,0.7-2.4,0.7c-1.9,0-3.4-1-3.4-3.5C36,7.1,37.7,6,39.6,6z"/>
		<path class="st4" d="M45.4,13c-2.1,0-3.4-1.3-3.4-3.5S43.4,6,45.4,6c2.1,0,3.4,1.3,3.4,3.5S47.4,13,45.4,13z M45.4,7.5
			c-1,0-1.7,0.7-1.7,2c0,1.3,0.7,2,1.7,2c1,0,1.7-0.7,1.7-2C47.1,8.2,46.5,7.5,45.4,7.5z"/>
		<path class="st4" d="M53,12.9h-1.8l-2.5-6.8h1.8l1.6,4.8h0l1.6-4.8h1.8L53,12.9z"/>
		<path class="st4" d="M57.8,12.9h-1.7V6.1h1.7V12.9z"/>
		<path class="st4" d="M61.4,12.9H59V6.1h2.4c2.6,0,4.1,1,4.1,3.3C65.5,11.6,64.1,12.9,61.4,12.9z M61.4,7.6h-0.7v3.8h0.7
			c1.6,0,2.3-0.7,2.3-2C63.7,8.2,63,7.6,61.4,7.6z"/>
		<path class="st4" d="M68.6,10.6H66V9.3h2.6V10.6z"/>
		<path class="st4" d="M72,12.9h-1.7V7.8l-1.2,0.5L68.6,7l2.1-0.9H72V12.9z"/>
		<path class="st4" d="M74.8,13c-1.1,0-1.6-0.4-1.8-0.6l0.5-1.3c0.2,0.1,0.6,0.5,1.2,0.5c0.9,0,1.5-0.5,1.6-1.5
			c-0.3,0.2-0.8,0.4-1.4,0.4c-1.2,0-2-0.7-2-2.2c0-1.5,1-2.3,2.5-2.3C77,6,78,7,78,9.3C78,12,76.6,13,74.8,13z M75.4,9.3
			c0.4,0,0.7-0.1,0.9-0.3c0-1.2-0.4-1.7-1-1.7c-0.5,0-0.8,0.3-0.8,0.9C74.5,8.9,74.8,9.3,75.4,9.3z"/>
	</g>
	<g>
		<path class="st2" d="M43.6,23.8h-1.8v-3.7h-4v3.7H36V15h1.8v3.5h4V15h1.8V23.8z"/>
		<path class="st2" d="M48,24c-1.7,0-3.2-1-3.2-3.3c0-2.3,1.5-3.3,3.2-3.3c1.7,0,3.2,1,3.2,3.3C51.2,23,49.7,24,48,24z M48,18.8
			c-0.8,0-1.4,0.6-1.4,1.8c0,1.3,0.6,1.8,1.4,1.8c0.8,0,1.4-0.5,1.4-1.8C49.4,19.4,48.8,18.8,48,18.8z"/>
		<path class="st2" d="M56.6,23.8l-1.7-2.6h-0.7v2.6h-1.7v-9.1h1.7v5.1h0.7l1.6-2.3h2l-2.2,3l2.4,3.3H56.6z"/>
		<path class="st2" d="M64,23.8l-1.7-2.6h-0.7v2.6h-1.7v-9.1h1.7v5.1h0.7l1.6-2.3h2l-2.2,3l2.4,3.3H64z"/>
		<path class="st2" d="M69.7,20.1c0.4,0,0.7,0,0.9,0.1v-0.1c0-0.9-0.4-1.3-1.2-1.3c-0.9,0-1.5,0.4-1.8,0.7l-0.6-1.1
			c0.4-0.4,1.2-1,2.7-1c1.9,0,2.6,1,2.6,2.7v3.7h-1.6v-0.7h0C70.5,23.4,70,24,68.8,24c-1.3,0-1.9-0.7-1.9-1.9
			C66.9,20.8,68,20.1,69.7,20.1z M69.3,22.7c0.8,0,1.1-0.3,1.2-0.5v-0.9c-0.2,0-0.4,0-0.8,0c-0.9,0-1.3,0.3-1.3,0.7
			C68.5,22.4,68.8,22.7,69.3,22.7z"/>
		<path class="st2" d="M75.3,16.7h-1.7v-1.6h1.7V16.7z M75.3,23.8h-1.7v-6.3h1.7V23.8z"/>
		<path class="st2" d="M82.6,23.8h-1.6v-0.7h0C80.7,23.4,80.3,24,79,24c-1.5,0-2.6-1.1-2.6-3.3c0-2.2,1.3-3.3,2.8-3.3
			c1.1,0,1.5,0.5,1.6,0.7h0v-3.3h1.7V23.8z M79.6,22.5c0.7,0,1.1-0.4,1.2-0.6v-2.5c-0.2-0.2-0.5-0.6-1.2-0.6c-0.8,0-1.4,0.6-1.4,1.8
			C78.2,22,78.8,22.5,79.6,22.5z"/>
		<path class="st2" d="M86.8,24c-1.7,0-3.2-1-3.2-3.3c0-2.3,1.5-3.3,3.2-3.3c1.7,0,3.2,1,3.2,3.3C90,23,88.5,24,86.8,24z M86.8,18.8
			c-0.8,0-1.4,0.6-1.4,1.8c0,1.3,0.6,1.8,1.4,1.8c0.8,0,1.4-0.5,1.4-1.8C88.2,19.4,87.6,18.8,86.8,18.8z"/>
	</g>
</g>
</svg>
